<?xml version="1.0" standalone="no"?><!DOCTYPE svg PUBLIC "-//W3C//DTD SVG 1.1//EN" "http://www.w3.org/Graphics/SVG/1.1/DTD/svg11.dtd"><svg t="1692000436871" class="icon" viewBox="0 0 1024 1024" version="1.1" xmlns="http://www.w3.org/2000/svg" p-id="7808" xmlns:xlink="http://www.w3.org/1999/xlink" width="128" height="128"><path d="M826.026667 128H197.973333c-15.104 0-27.306667 13.738667-27.306666 30.72v706.56c0 16.981333 12.202667 30.72 27.306666 30.72h628.053334c15.104 0 27.306667-13.738667 27.306666-30.72V158.72c0-16.981333-12.202667-30.72-27.306666-30.72zM299.946667 688.64a38.4 38.4 0 1 1 0-76.8 38.4 38.4 0 0 1 0 76.8z m0-138.24a38.4 38.4 0 1 1 0-76.8 38.4 38.4 0 0 1 0 76.8z m0-138.24a38.4 38.4 0 1 1 0-76.8 38.4 38.4 0 0 1 0 76.8z m462.506666 261.12c0 4.224-6.912 7.68-15.36 7.68H393.813333c-8.448 0-15.36-3.456-15.36-7.68V627.2c0-4.224 6.912-7.68 15.36-7.68h353.28c8.448 0 15.36 3.456 15.36 7.68v46.08z m0-138.24c0 4.224-6.912 7.68-15.36 7.68H393.813333c-8.448 0-15.36-3.456-15.36-7.68v-46.08c0-4.224 6.912-7.68 15.36-7.68h353.28c8.448 0 15.36 3.456 15.36 7.68v46.08z m0-138.24c0 4.224-6.912 7.68-15.36 7.68H393.813333c-8.448 0-15.36-3.456-15.36-7.68V350.72c0-4.224 6.912-7.68 15.36-7.68h353.28c8.448 0 15.36 3.456 15.36 7.68V396.8z" fill="#0052D9" p-id="7809"></path></svg>